<mxfile host="app.diagrams.net" modified="2022-05-22T05:30:03.538Z" agent="5.0 (Macintosh; Intel Mac OS X 10_15_7) AppleWebKit/537.36 (KHTML, like Gecko) Chrome/101.0.4951.64 Safari/537.36" etag="Yy2P29ScAIAA-Q1yRz09" version="18.0.5" type="github">
  <diagram id="3228e29e-7158-1315-38df-8450db1d8a1d" name="Page-1">
    <mxGraphModel dx="887" dy="-208" grid="0" gridSize="10" guides="1" tooltips="1" connect="1" arrows="1" fold="1" page="1" pageScale="1" pageWidth="660" pageHeight="380" background="#EFF1F3" math="0" shadow="0">
      <root>
        <mxCell id="0" />
        <mxCell id="1" parent="0" />
        <mxCell id="yyw1uqhGUR_v7xHCsKaX-17" value="&lt;font color=&quot;#ffffff&quot; style=&quot;font-size: 17px;&quot;&gt;&lt;span style=&quot;font-size: 17px;&quot;&gt;&lt;br style=&quot;font-size: 17px;&quot;&gt;&lt;/span&gt;&lt;/font&gt;" style="whiteSpace=wrap;html=1;aspect=fixed;rounded=1;strokeColor=none;fillColor=#535E80;fontSize=17;" parent="1" vertex="1">
          <mxGeometry x="299.75" y="1225" width="122" height="122" as="geometry" />
        </mxCell>
        <mxCell id="yyw1uqhGUR_v7xHCsKaX-19" value="&lt;font color=&quot;#ffffff&quot; style=&quot;font-size: 17px;&quot;&gt;user0&lt;/font&gt;" style="text;html=1;strokeColor=none;fillColor=none;align=center;verticalAlign=middle;whiteSpace=wrap;rounded=0;dashed=1;fontColor=#535E80;fontSize=17;" parent="1" vertex="1">
          <mxGeometry x="335.75" y="1233" width="55" height="22" as="geometry" />
        </mxCell>
        <mxCell id="GSjFHF2CIG4gb6S8epUb-2" value="" style="rounded=1;whiteSpace=wrap;html=1;fillColor=#E6D7C2;strokeColor=none;fontSize=17;" parent="1" vertex="1">
          <mxGeometry x="22.75" y="1225" width="127" height="257" as="geometry" />
        </mxCell>
        <mxCell id="GSjFHF2CIG4gb6S8epUb-7" value="数据" style="rounded=1;whiteSpace=wrap;html=1;fillColor=#9AA4C0;strokeColor=default;fontColor=#000000;align=center;fontSize=13;" parent="1" vertex="1">
          <mxGeometry x="75.75" y="1310.9299999999998" width="66" height="24" as="geometry" />
        </mxCell>
        <mxCell id="GSjFHF2CIG4gb6S8epUb-8" value="&lt;font style=&quot;font-size: 13px;&quot;&gt;2kw&lt;/font&gt;" style="rounded=1;whiteSpace=wrap;html=1;fillColor=#9AA4C0;strokeColor=default;fontColor=#000000;fontSize=13;" parent="1" vertex="1">
          <mxGeometry x="33.75" y="1310.9299999999998" width="42" height="24" as="geometry" />
        </mxCell>
        <mxCell id="GSjFHF2CIG4gb6S8epUb-27" value="&lt;font color=&quot;#5c5c5c&quot; style=&quot;font-size: 17px;&quot;&gt;user&lt;/font&gt;" style="text;html=1;strokeColor=none;fillColor=none;align=center;verticalAlign=middle;whiteSpace=wrap;rounded=0;dashed=1;fontColor=#535E80;fontSize=17;" parent="1" vertex="1">
          <mxGeometry x="56.25" y="1233" width="55" height="22" as="geometry" />
        </mxCell>
        <mxCell id="GSjFHF2CIG4gb6S8epUb-30" value="" style="endArrow=none;dashed=1;html=1;rounded=0;strokeWidth=3;strokeColor=#5C5C5C;fontSize=17;" parent="1" edge="1">
          <mxGeometry width="50" height="50" relative="1" as="geometry">
            <mxPoint x="40.879999999999995" y="1356.39" as="sourcePoint" />
            <mxPoint x="639.75" y="1356" as="targetPoint" />
          </mxGeometry>
        </mxCell>
        <mxCell id="GSjFHF2CIG4gb6S8epUb-32" value="&lt;span style=&quot;font-size: 17px;&quot;&gt;&lt;b style=&quot;&quot;&gt;&lt;font color=&quot;#5c5c5c&quot;&gt;根据id范围分表后再取模&lt;/font&gt;&lt;/b&gt;&lt;/span&gt;" style="text;html=1;strokeColor=none;fillColor=none;align=center;verticalAlign=middle;whiteSpace=wrap;rounded=0;" parent="1" vertex="1">
          <mxGeometry x="223" y="1159" width="213.5" height="24" as="geometry" />
        </mxCell>
        <mxCell id="GSjFHF2CIG4gb6S8epUb-42" value="" style="shape=image;html=1;verticalAlign=top;verticalLabelPosition=bottom;labelBackgroundColor=#ffffff;imageAspect=0;aspect=fixed;image=https://cdn1.iconfinder.com/data/icons/ionicons-outline-vol-1/512/cut-outline-128.png;fontSize=13;fontColor=#535E80;fillColor=#4A919B;" parent="1" vertex="1">
          <mxGeometry x="19.75" y="1343.8700000000001" width="26.13" height="26.13" as="geometry" />
        </mxCell>
        <mxCell id="SW3bWeaWtJsJV6UMWV42-2" value="" style="shape=flexArrow;endArrow=classic;html=1;rounded=0;strokeColor=none;fillColor=#4A919B;fontSize=17;" parent="1" edge="1">
          <mxGeometry width="50" height="50" relative="1" as="geometry">
            <mxPoint x="178.25" y="1421.5300000000002" as="sourcePoint" />
            <mxPoint x="261.25" y="1421.7800000000002" as="targetPoint" />
          </mxGeometry>
        </mxCell>
        <mxCell id="SW3bWeaWtJsJV6UMWV42-4" value="&lt;font color=&quot;#535e80&quot; style=&quot;font-size: 13px;&quot;&gt;range = [1~2kw]&lt;/font&gt;" style="text;html=1;strokeColor=none;fillColor=none;align=center;verticalAlign=middle;whiteSpace=wrap;rounded=0;fontSize=17;" parent="1" vertex="1">
          <mxGeometry x="165.75" y="1250" width="104" height="41" as="geometry" />
        </mxCell>
        <mxCell id="SW3bWeaWtJsJV6UMWV42-5" value="&lt;font color=&quot;#4a919b&quot; style=&quot;font-size: 13px;&quot;&gt;range = [2kw+1~4kw]&lt;/font&gt;" style="text;html=1;strokeColor=none;fillColor=none;align=center;verticalAlign=middle;whiteSpace=wrap;rounded=0;fontSize=17;" parent="1" vertex="1">
          <mxGeometry x="161.75" y="1373.53" width="131" height="35.47" as="geometry" />
        </mxCell>
        <mxCell id="SW3bWeaWtJsJV6UMWV42-6" value="" style="shape=flexArrow;endArrow=classic;html=1;rounded=0;strokeColor=none;fillColor=#535E80;fontSize=17;" parent="1" edge="1">
          <mxGeometry width="50" height="50" relative="1" as="geometry">
            <mxPoint x="178.25" y="1298.57" as="sourcePoint" />
            <mxPoint x="261.25" y="1298.82" as="targetPoint" />
          </mxGeometry>
        </mxCell>
        <mxCell id="snNPx92-vVBy3uUKYPBh-11" value="······" style="rounded=1;whiteSpace=wrap;html=1;fillColor=#9AA4C0;strokeColor=default;fontColor=#000000;align=center;fontSize=13;fontStyle=1" parent="1" vertex="1">
          <mxGeometry x="75.75" y="1286.9299999999998" width="66" height="24" as="geometry" />
        </mxCell>
        <mxCell id="snNPx92-vVBy3uUKYPBh-12" value="&lt;font style=&quot;font-size: 13px;&quot;&gt;···&lt;/font&gt;" style="rounded=1;whiteSpace=wrap;html=1;fillColor=#9AA4C0;strokeColor=default;fontColor=#000000;fontSize=13;fontStyle=1" parent="1" vertex="1">
          <mxGeometry x="33.75" y="1286.9299999999998" width="42" height="24" as="geometry" />
        </mxCell>
        <mxCell id="snNPx92-vVBy3uUKYPBh-13" value="数据" style="rounded=1;whiteSpace=wrap;html=1;fillColor=#9AA4C0;strokeColor=default;fontColor=#000000;align=center;fontSize=13;" parent="1" vertex="1">
          <mxGeometry x="75.75" y="1262.9299999999998" width="66" height="24" as="geometry" />
        </mxCell>
        <mxCell id="snNPx92-vVBy3uUKYPBh-14" value="&lt;font style=&quot;font-size: 13px;&quot;&gt;1&lt;/font&gt;" style="rounded=1;whiteSpace=wrap;html=1;fillColor=#9AA4C0;strokeColor=default;fontColor=#000000;fontSize=13;" parent="1" vertex="1">
          <mxGeometry x="33.75" y="1262.9299999999998" width="42" height="24" as="geometry" />
        </mxCell>
        <mxCell id="snNPx92-vVBy3uUKYPBh-15" value="数据" style="rounded=1;whiteSpace=wrap;html=1;fillColor=#9AC7BF;strokeColor=default;fontColor=#000000;align=center;fontSize=13;" parent="1" vertex="1">
          <mxGeometry x="75.25" y="1436" width="66" height="24" as="geometry" />
        </mxCell>
        <mxCell id="snNPx92-vVBy3uUKYPBh-16" value="&lt;font style=&quot;font-size: 13px;&quot;&gt;4kw&lt;/font&gt;" style="rounded=1;whiteSpace=wrap;html=1;fillColor=#9AC7BF;strokeColor=default;fontColor=#000000;fontSize=13;" parent="1" vertex="1">
          <mxGeometry x="33.25" y="1436" width="42" height="24" as="geometry" />
        </mxCell>
        <mxCell id="snNPx92-vVBy3uUKYPBh-17" value="······" style="rounded=1;whiteSpace=wrap;html=1;fillColor=#9AC7BF;strokeColor=default;fontColor=#000000;align=center;fontSize=13;fontStyle=1" parent="1" vertex="1">
          <mxGeometry x="75.25" y="1412" width="66" height="24" as="geometry" />
        </mxCell>
        <mxCell id="snNPx92-vVBy3uUKYPBh-18" value="&lt;font style=&quot;font-size: 13px;&quot;&gt;···&lt;/font&gt;" style="rounded=1;whiteSpace=wrap;html=1;fillColor=#9AC7BF;strokeColor=default;fontColor=#000000;fontSize=13;fontStyle=1" parent="1" vertex="1">
          <mxGeometry x="33.25" y="1412" width="42" height="24" as="geometry" />
        </mxCell>
        <mxCell id="snNPx92-vVBy3uUKYPBh-19" value="数据" style="rounded=1;whiteSpace=wrap;html=1;fillColor=#9AC7BF;strokeColor=default;fontColor=#000000;align=center;fontSize=13;" parent="1" vertex="1">
          <mxGeometry x="75.25" y="1388" width="66" height="24" as="geometry" />
        </mxCell>
        <mxCell id="snNPx92-vVBy3uUKYPBh-20" value="2kw+1" style="rounded=1;whiteSpace=wrap;html=1;fillColor=#9AC7BF;strokeColor=default;fontColor=#000000;fontSize=13;" parent="1" vertex="1">
          <mxGeometry x="33.25" y="1388" width="42" height="24" as="geometry" />
        </mxCell>
        <mxCell id="snNPx92-vVBy3uUKYPBh-21" value="数据" style="rounded=1;whiteSpace=wrap;html=1;fillColor=#9AA4C0;strokeColor=default;fontColor=#000000;align=center;fontSize=13;" parent="1" vertex="1">
          <mxGeometry x="349.75" y="1309.9299999999998" width="66" height="24" as="geometry" />
        </mxCell>
        <mxCell id="snNPx92-vVBy3uUKYPBh-22" value="&lt;font style=&quot;font-size: 13px;&quot;&gt;2kw&lt;/font&gt;" style="rounded=1;whiteSpace=wrap;html=1;fillColor=#9AA4C0;strokeColor=default;fontColor=#000000;fontSize=13;" parent="1" vertex="1">
          <mxGeometry x="307.75" y="1309.9299999999998" width="42" height="24" as="geometry" />
        </mxCell>
        <mxCell id="snNPx92-vVBy3uUKYPBh-23" value="······" style="rounded=1;whiteSpace=wrap;html=1;fillColor=#9AA4C0;strokeColor=default;fontColor=#000000;align=center;fontSize=13;fontStyle=1" parent="1" vertex="1">
          <mxGeometry x="349.75" y="1285.9299999999998" width="66" height="24" as="geometry" />
        </mxCell>
        <mxCell id="snNPx92-vVBy3uUKYPBh-24" value="&lt;font style=&quot;font-size: 13px;&quot;&gt;···&lt;/font&gt;" style="rounded=1;whiteSpace=wrap;html=1;fillColor=#9AA4C0;strokeColor=default;fontColor=#000000;fontSize=13;fontStyle=1" parent="1" vertex="1">
          <mxGeometry x="307.75" y="1285.9299999999998" width="42" height="24" as="geometry" />
        </mxCell>
        <mxCell id="snNPx92-vVBy3uUKYPBh-25" value="数据" style="rounded=1;whiteSpace=wrap;html=1;fillColor=#9AA4C0;strokeColor=default;fontColor=#000000;align=center;fontSize=13;" parent="1" vertex="1">
          <mxGeometry x="349.75" y="1261.9299999999998" width="66" height="24" as="geometry" />
        </mxCell>
        <mxCell id="snNPx92-vVBy3uUKYPBh-26" value="&lt;font style=&quot;font-size: 13px;&quot;&gt;1&lt;/font&gt;" style="rounded=1;whiteSpace=wrap;html=1;fillColor=#9AA4C0;strokeColor=default;fontColor=#000000;fontSize=13;" parent="1" vertex="1">
          <mxGeometry x="307.75" y="1261.9299999999998" width="42" height="24" as="geometry" />
        </mxCell>
        <mxCell id="snNPx92-vVBy3uUKYPBh-27" value="&lt;font color=&quot;#ffffff&quot; style=&quot;font-size: 17px;&quot;&gt;&lt;span style=&quot;font-size: 17px;&quot;&gt;&lt;br style=&quot;font-size: 17px;&quot;&gt;&lt;/span&gt;&lt;/font&gt;" style="whiteSpace=wrap;html=1;aspect=fixed;rounded=1;strokeColor=none;fillColor=#4A919B;fontSize=17;" parent="1" vertex="1">
          <mxGeometry x="299.75" y="1363" width="122" height="122" as="geometry" />
        </mxCell>
        <mxCell id="snNPx92-vVBy3uUKYPBh-28" value="&lt;font color=&quot;#ffffff&quot; style=&quot;font-size: 17px;&quot;&gt;user1&lt;/font&gt;" style="text;html=1;strokeColor=none;fillColor=none;align=center;verticalAlign=middle;whiteSpace=wrap;rounded=0;dashed=1;fontColor=#535E80;fontSize=17;" parent="1" vertex="1">
          <mxGeometry x="335.75" y="1371" width="55" height="22" as="geometry" />
        </mxCell>
        <mxCell id="snNPx92-vVBy3uUKYPBh-35" value="数据" style="rounded=1;whiteSpace=wrap;html=1;fillColor=#9AC7BF;strokeColor=default;fontColor=#000000;align=center;fontSize=13;" parent="1" vertex="1">
          <mxGeometry x="348.75" y="1448" width="66" height="24" as="geometry" />
        </mxCell>
        <mxCell id="snNPx92-vVBy3uUKYPBh-36" value="&lt;font style=&quot;font-size: 13px;&quot;&gt;4kw&lt;/font&gt;" style="rounded=1;whiteSpace=wrap;html=1;fillColor=#9AC7BF;strokeColor=default;fontColor=#000000;fontSize=13;" parent="1" vertex="1">
          <mxGeometry x="306.75" y="1448" width="42" height="24" as="geometry" />
        </mxCell>
        <mxCell id="snNPx92-vVBy3uUKYPBh-37" value="······" style="rounded=1;whiteSpace=wrap;html=1;fillColor=#9AC7BF;strokeColor=default;fontColor=#000000;align=center;fontSize=13;fontStyle=1" parent="1" vertex="1">
          <mxGeometry x="348.75" y="1424" width="66" height="24" as="geometry" />
        </mxCell>
        <mxCell id="snNPx92-vVBy3uUKYPBh-38" value="&lt;font style=&quot;font-size: 13px;&quot;&gt;···&lt;/font&gt;" style="rounded=1;whiteSpace=wrap;html=1;fillColor=#9AC7BF;strokeColor=default;fontColor=#000000;fontSize=13;fontStyle=1" parent="1" vertex="1">
          <mxGeometry x="306.75" y="1424" width="42" height="24" as="geometry" />
        </mxCell>
        <mxCell id="snNPx92-vVBy3uUKYPBh-39" value="数据" style="rounded=1;whiteSpace=wrap;html=1;fillColor=#9AC7BF;strokeColor=default;fontColor=#000000;align=center;fontSize=13;" parent="1" vertex="1">
          <mxGeometry x="348.75" y="1400" width="66" height="24" as="geometry" />
        </mxCell>
        <mxCell id="snNPx92-vVBy3uUKYPBh-40" value="2kw+1" style="rounded=1;whiteSpace=wrap;html=1;fillColor=#9AC7BF;strokeColor=default;fontColor=#000000;fontSize=13;" parent="1" vertex="1">
          <mxGeometry x="306.75" y="1400" width="42" height="24" as="geometry" />
        </mxCell>
        <mxCell id="2WN-Hfl_rZ5wHU6LqjMO-3" value="&lt;font style=&quot;font-size: 16px;&quot; color=&quot;#535e80&quot;&gt;&lt;b&gt;id%2=0&lt;/b&gt;&lt;/font&gt;" style="text;html=1;strokeColor=none;fillColor=none;align=center;verticalAlign=middle;whiteSpace=wrap;rounded=0;fontSize=17;" vertex="1" parent="1">
          <mxGeometry x="432.75" y="1244" width="104" height="41" as="geometry" />
        </mxCell>
        <mxCell id="2WN-Hfl_rZ5wHU6LqjMO-4" value="" style="shape=flexArrow;endArrow=classic;html=1;rounded=0;strokeColor=none;fillColor=#535E80;fontSize=17;" edge="1" parent="1">
          <mxGeometry width="50" height="50" relative="1" as="geometry">
            <mxPoint x="448.75" y="1291.1299999999999" as="sourcePoint" />
            <mxPoint x="531.75" y="1291.3799999999997" as="targetPoint" />
          </mxGeometry>
        </mxCell>
        <mxCell id="2WN-Hfl_rZ5wHU6LqjMO-19" value="&lt;font style=&quot;font-size: 16px;&quot;&gt;&lt;b&gt;id%2=1&lt;/b&gt;&lt;/font&gt;" style="text;html=1;strokeColor=none;fillColor=none;align=center;verticalAlign=middle;whiteSpace=wrap;rounded=0;fontSize=17;fontColor=#535E80;" vertex="1" parent="1">
          <mxGeometry x="431.75" y="1297" width="104" height="41" as="geometry" />
        </mxCell>
        <mxCell id="2WN-Hfl_rZ5wHU6LqjMO-20" value="" style="shadow=0;dashed=0;html=1;strokeColor=none;fillColor=#535E80;labelPosition=center;verticalLabelPosition=bottom;verticalAlign=top;align=center;outlineConnect=0;shape=mxgraph.veeam.table;fontColor=#535E80;" vertex="1" parent="1">
          <mxGeometry x="554.75" y="1216" width="67" height="60" as="geometry" />
        </mxCell>
        <mxCell id="2WN-Hfl_rZ5wHU6LqjMO-21" value="&lt;font color=&quot;#ffffff&quot; style=&quot;font-size: 14px;&quot;&gt;user0_0&lt;/font&gt;" style="text;html=1;strokeColor=none;fillColor=none;align=center;verticalAlign=middle;whiteSpace=wrap;rounded=0;dashed=1;fontColor=#535E80;fontSize=17;" vertex="1" parent="1">
          <mxGeometry x="560.75" y="1213" width="55" height="22" as="geometry" />
        </mxCell>
        <mxCell id="2WN-Hfl_rZ5wHU6LqjMO-23" value="&lt;font color=&quot;#ffffff&quot; style=&quot;font-size: 14px;&quot;&gt;user0_1&lt;/font&gt;" style="text;html=1;strokeColor=none;fillColor=none;align=center;verticalAlign=middle;whiteSpace=wrap;rounded=0;dashed=1;fontColor=#535E80;fontSize=17;" vertex="1" parent="1">
          <mxGeometry x="558.75" y="1296" width="55" height="22" as="geometry" />
        </mxCell>
        <mxCell id="2WN-Hfl_rZ5wHU6LqjMO-24" value="" style="shadow=0;dashed=0;html=1;strokeColor=none;fillColor=#535E80;labelPosition=center;verticalLabelPosition=bottom;verticalAlign=top;align=center;outlineConnect=0;shape=mxgraph.veeam.table;fontColor=#535E80;" vertex="1" parent="1">
          <mxGeometry x="554.75" y="1288.93" width="67" height="60" as="geometry" />
        </mxCell>
        <mxCell id="2WN-Hfl_rZ5wHU6LqjMO-25" value="&lt;font color=&quot;#ffffff&quot; style=&quot;font-size: 14px;&quot;&gt;user0_1&lt;/font&gt;" style="text;html=1;strokeColor=none;fillColor=none;align=center;verticalAlign=middle;whiteSpace=wrap;rounded=0;dashed=1;fontColor=#535E80;fontSize=17;" vertex="1" parent="1">
          <mxGeometry x="560.75" y="1285.93" width="55" height="22" as="geometry" />
        </mxCell>
        <mxCell id="2WN-Hfl_rZ5wHU6LqjMO-26" value="&lt;font style=&quot;font-size: 16px;&quot;&gt;&lt;b&gt;id%2=0&lt;/b&gt;&lt;/font&gt;" style="text;html=1;strokeColor=none;fillColor=none;align=center;verticalAlign=middle;whiteSpace=wrap;rounded=0;fontSize=17;fontColor=#4A919B;" vertex="1" parent="1">
          <mxGeometry x="432.75" y="1391.46" width="104" height="41" as="geometry" />
        </mxCell>
        <mxCell id="2WN-Hfl_rZ5wHU6LqjMO-27" value="" style="shape=flexArrow;endArrow=classic;html=1;rounded=0;strokeColor=none;fillColor=#4A919B;fontSize=17;fontColor=#4A919B;" edge="1" parent="1">
          <mxGeometry width="50" height="50" relative="1" as="geometry">
            <mxPoint x="448.75" y="1433.6599999999999" as="sourcePoint" />
            <mxPoint x="531.75" y="1433.9099999999996" as="targetPoint" />
          </mxGeometry>
        </mxCell>
        <mxCell id="2WN-Hfl_rZ5wHU6LqjMO-28" value="&lt;font style=&quot;font-size: 16px;&quot;&gt;&lt;b&gt;id%2=1&lt;/b&gt;&lt;/font&gt;" style="text;html=1;strokeColor=none;fillColor=none;align=center;verticalAlign=middle;whiteSpace=wrap;rounded=0;fontSize=17;fontColor=#4A919B;" vertex="1" parent="1">
          <mxGeometry x="431.75" y="1434.46" width="104" height="41" as="geometry" />
        </mxCell>
        <mxCell id="2WN-Hfl_rZ5wHU6LqjMO-29" value="" style="shadow=0;dashed=0;html=1;strokeColor=none;fillColor=#4A919B;labelPosition=center;verticalLabelPosition=bottom;verticalAlign=top;align=center;outlineConnect=0;shape=mxgraph.veeam.table;fontColor=#535E80;" vertex="1" parent="1">
          <mxGeometry x="554.75" y="1362.53" width="67" height="60" as="geometry" />
        </mxCell>
        <mxCell id="2WN-Hfl_rZ5wHU6LqjMO-30" value="&lt;font color=&quot;#ffffff&quot; style=&quot;font-size: 14px;&quot;&gt;user1_0&lt;/font&gt;" style="text;html=1;strokeColor=none;fillColor=none;align=center;verticalAlign=middle;whiteSpace=wrap;rounded=0;dashed=1;fontColor=#535E80;fontSize=17;" vertex="1" parent="1">
          <mxGeometry x="560.75" y="1359.53" width="55" height="22" as="geometry" />
        </mxCell>
        <mxCell id="2WN-Hfl_rZ5wHU6LqjMO-31" value="&lt;font color=&quot;#ffffff&quot; style=&quot;font-size: 14px;&quot;&gt;user0_1&lt;/font&gt;" style="text;html=1;strokeColor=none;fillColor=none;align=center;verticalAlign=middle;whiteSpace=wrap;rounded=0;dashed=1;fontColor=#535E80;fontSize=17;" vertex="1" parent="1">
          <mxGeometry x="558.75" y="1439.53" width="55" height="22" as="geometry" />
        </mxCell>
        <mxCell id="2WN-Hfl_rZ5wHU6LqjMO-32" value="" style="shadow=0;dashed=0;html=1;strokeColor=none;fillColor=#4A919B;labelPosition=center;verticalLabelPosition=bottom;verticalAlign=top;align=center;outlineConnect=0;shape=mxgraph.veeam.table;fontColor=#535E80;" vertex="1" parent="1">
          <mxGeometry x="554.75" y="1432.46" width="67" height="60" as="geometry" />
        </mxCell>
        <mxCell id="2WN-Hfl_rZ5wHU6LqjMO-33" value="&lt;font color=&quot;#ffffff&quot; style=&quot;font-size: 14px;&quot;&gt;user1_1&lt;/font&gt;" style="text;html=1;strokeColor=none;fillColor=none;align=center;verticalAlign=middle;whiteSpace=wrap;rounded=0;dashed=1;fontColor=#535E80;fontSize=17;" vertex="1" parent="1">
          <mxGeometry x="560.75" y="1429.46" width="55" height="22" as="geometry" />
        </mxCell>
      </root>
    </mxGraphModel>
  </diagram>
</mxfile>
